<?xml version="1.0" encoding="utf-8"?>
<!-- Generator: Adobe Illustrator 24.0.0, SVG Export Plug-In . SVG Version: 6.00 Build 0)  -->
<svg version="1.1" xmlns="http://www.w3.org/2000/svg" xmlns:xlink="http://www.w3.org/1999/xlink" x="0px" y="0px"
	 viewBox="0 0 256 256" style="enable-background:new 0 0 256 256;" xml:space="preserve">
<style type="text/css">
	.st0{fill:#F98FA6;}
	.st1{fill:#FC657E;}
	.st2{fill:#DAE6F1;}
	.st3{fill:#5290DB;}
	.st4{fill:#FCDD86;}
	.st5{fill:#F5C84C;}
	.st6{fill:#87D147;}
	.st7{fill:#70D6F9;}
	.st8{fill:#EDF4FC;}
	.st9{fill:#9BE5F9;}
	.st10{fill:#B2E26D;}
	.st11{fill:#F9C1A8;}
	.st12{fill:#414344;}
	.st13{fill:#E1FBFF;}
	.st14{fill:#FFE3EC;}
	.st15{fill:#FCBECF;}
	.st16{fill:#EF4460;}
	.st17{fill:#80C2F9;}
	.st18{fill:#3A70BF;}
	.st19{fill:#FCA265;}
	.st20{fill:#5B5D60;}
	.st21{fill:#818182;}
	.st22{fill:#C7D7E5;}
	.st23{fill:#F9D0B4;}
	.st24{fill:#AA6F59;}
	.st25{fill:#D1856D;}
	.st26{fill:#FCC29A;}
	.st27{fill:#29589F;}
	.st28{fill:#F7B386;}
	.st29{fill:#FC8C48;}
	.st30{fill:#FFF0CC;}
	.st31{fill:#57AF12;}
	.st32{fill:#3CAADC;}
	.st33{fill:#EDB311;}
	.st34{fill:#231F20;}
</style>
<g id="Layer_1">
</g>
<g id="Layer_2">
</g>
<g id="Layer_3">
</g>
<g id="Layer_4">
</g>
<g id="Layer_5">
</g>
<g id="Layer_6">
</g>
<g id="Layer_7">
</g>
<g id="Layer_8">
</g>
<g id="Layer_9">
</g>
<g id="Layer_10">
</g>
<g id="Layer_11">
</g>
<g id="Layer_12">
</g>
<g id="Layer_13">
</g>
<g id="Layer_14">
</g>
<g id="Layer_15">
</g>
<g id="Layer_16">
</g>
<g id="Layer_17">
</g>
<g id="Layer_18">
</g>
<g id="Layer_19">
</g>
<g id="Layer_20">
</g>
<g id="Layer_21">
</g>
<g id="Layer_22">
</g>
<g id="Layer_23">
</g>
<g id="Layer_24">
</g>
<g id="Layer_25">
</g>
<g id="Layer_26">
</g>
<g id="Layer_27">
</g>
<g id="Layer_28">
</g>
<g id="Layer_29">
</g>
<g id="Layer_30">
</g>
<g id="Layer_31">
</g>
<g id="Layer_32">
</g>
<g id="Layer_33">
</g>
<g id="Layer_34">
</g>
<g id="Layer_35">
</g>
<g id="Layer_36">
</g>
<g id="Layer_37">
</g>
<g id="Layer_38">
</g>
<g id="Layer_39">
</g>
<g id="Layer_40">
</g>
<g id="Layer_41">
</g>
<g id="Layer_42">
</g>
<g id="Layer_43">
</g>
<g id="Layer_44">
</g>
<g id="Layer_45">
</g>
<g id="Layer_46">
</g>
<g id="Layer_47">
</g>
<g id="Layer_48">
</g>
<g id="Layer_49">
</g>
<g id="Layer_50">
</g>
<g id="Layer_51">
</g>
<g id="Layer_52">
</g>
<g id="Layer_53">
</g>
<g id="Layer_54">
</g>
<g id="Layer_55">
</g>
<g id="Layer_56">
</g>
<g id="Layer_57">
</g>
<g id="Layer_58">
</g>
<g id="Layer_59">
	<g>
		<g>
			<g>
				<path class="st13" d="M186.731,211.092l-3.394-5.005c-2.953,0.531-5.988,0.823-9.094,0.823
					c-28.242,0-51.137-22.895-51.137-51.137c0-9.983,2.863-19.294,7.811-27.163c-2.389-4.214-3.66-8.984-3.66-13.854V48.894H94.821
					v65.862c0,5.621-1.686,11.113-4.841,15.765l-54.633,80.571c-12.23,18.037,0.69,42.408,22.482,42.408h106.419
					C186.041,253.5,198.961,229.128,186.731,211.092z"/>
			</g>
		</g>
		<g>
			<g>
				<path class="st1" d="M186.731,211.092l-3.394-5.005c-2.953,0.531-5.988,0.823-9.094,0.823c-18.589,0-34.859-9.921-43.811-24.755
					c-9.09,0.677-9.513,8.698-19.402,8.698c-10.328,0-10.328-8.749-20.656-8.749c-10.325,0-10.325,8.749-20.649,8.749
					c-8.183,0-9.903-5.475-15.396-7.754l-18.982,27.994c-12.23,18.037,0.69,42.408,22.482,42.408h106.419
					C186.041,253.5,198.961,229.128,186.731,211.092z"/>
			</g>
		</g>
		<g>
			<g>
				<circle class="st0" cx="83.5" cy="227.5" r="6.5"/>
			</g>
		</g>
		<g>
			<g>
				<circle class="st0" cx="111" cy="212.5" r="10"/>
			</g>
		</g>
		<g>
			<g>
				<path class="st5" d="M197.262,110.113c0.006,2.768-0.501,5.91-1.686,9.481c-0.341,1.029-0.336,2.137-0.031,3.177
					c0.918,3.127,2.014,10.126-5.358,12.89c-5.295,1.985-6.949,3.607-7.366,4.664c-0.337,0.855-1.238,1.353-2.157,1.353h-12.843
					c-0.919,0-1.82-0.498-2.157-1.353c-0.417-1.057-2.072-2.679-7.366-4.664c-7.372-2.764-6.276-9.763-5.358-12.89
					c0.305-1.041,0.311-2.148-0.031-3.177c-1.185-3.571-1.692-6.713-1.686-9.481c-16.676,8.424-28.118,25.7-28.118,45.66
					c0,28.242,22.895,51.137,51.137,51.137s51.137-22.895,51.137-51.137C225.381,135.813,213.938,118.537,197.262,110.113z"/>
			</g>
		</g>
		<g>
			<g>
				<path class="st8" d="M186.271,137.382c-2.276,1.207-3.161,2.211-3.45,2.943c-0.337,0.855-1.238,1.353-2.157,1.353h-12.843
					c-0.919,0-1.82-0.498-2.157-1.353c-0.289-0.732-1.174-1.736-3.45-2.943c0,0.038-0.005,0.074-0.005,0.111v7.166
					c0,4.648,3.803,8.451,8.451,8.451h7.166c4.648,0,8.451-3.803,8.451-8.451v-7.166
					C186.277,137.456,186.272,137.419,186.271,137.382z"/>
			</g>
		</g>
		<g>
			<g>
				<path class="st8" d="M203.267,168.968c-2.826-1.577-6.546-0.59-8.217,2.182c-0.264,0.437-0.449,0.896-0.593,1.362
					l-36.159-20.876c0.306-0.33,0.59-0.685,0.824-1.091c1.705-2.953,0.668-6.736-2.319-8.403c-2.826-1.577-6.546-0.59-8.217,2.182
					c-0.774,1.282-1.021,2.73-0.808,4.097c0.209,1.347-0.544,2.652-1.815,3.144c-1.29,0.499-2.42,1.437-3.144,2.748
					c-1.564,2.833-0.56,6.548,2.219,8.207c2.938,1.754,6.732,0.76,8.436-2.193c0.234-0.406,0.4-0.83,0.532-1.259l36.159,20.876
					c-0.331,0.357-0.637,0.747-0.883,1.194c-1.564,2.833-0.56,6.548,2.219,8.207c2.938,1.754,6.732,0.76,8.436-2.193
					c0.742-1.286,0.965-2.728,0.732-4.085c-0.218-1.274,0.532-2.572,1.744-3.02c1.291-0.478,2.429-1.391,3.171-2.677
					C207.291,174.418,206.254,170.635,203.267,168.968z"/>
			</g>
		</g>
		<g>
			<g>
				<path class="st8" d="M205.668,154.313c-0.724-1.311-1.854-2.249-3.144-2.748c-1.271-0.492-2.025-1.797-1.815-3.144
					c0.213-1.367-0.034-2.814-0.808-4.097c-1.671-2.771-5.391-3.759-8.217-2.181c-2.987,1.667-4.024,5.45-2.319,8.402
					c0.234,0.406,0.519,0.761,0.824,1.091l-15.945,9.206l8.582,4.955l11.655-6.729c0.133,0.429,0.298,0.854,0.532,1.259
					c1.705,2.953,5.499,3.947,8.436,2.193C206.227,160.861,207.232,157.146,205.668,154.313z"/>
			</g>
		</g>
		<g>
			<g>
				<path class="st8" d="M158.321,179.944l15.922-9.193l-8.582-4.955l-11.631,6.716c-0.144-0.466-0.329-0.925-0.593-1.362
					c-1.671-2.771-5.391-3.759-8.217-2.182c-2.987,1.667-4.024,5.45-2.319,8.403c0.742,1.286,1.88,2.199,3.172,2.677
					c1.212,0.448,1.961,1.746,1.744,3.02c-0.232,1.357-0.01,2.8,0.732,4.085c1.705,2.952,5.499,3.947,8.437,2.193
					c2.779-1.659,3.784-5.374,2.219-8.207C158.958,180.691,158.652,180.302,158.321,179.944z"/>
			</g>
		</g>
		<g>
			<g>
				<path class="st8" d="M195.577,119.594c4.787-14.432-1.422-21.892-8.353-25.719c-8.033-4.436-17.929-4.436-25.962,0
					c-6.931,3.827-13.139,11.287-8.352,25.719c0.341,1.029,0.336,2.137,0.031,3.177c-0.918,3.126-2.014,10.125,5.358,12.89
					c5.295,1.985,6.949,3.607,7.366,4.664c0.337,0.855,1.238,1.353,2.157,1.353h12.843c0.919,0,1.82-0.498,2.157-1.353
					c0.417-1.057,2.072-2.679,7.366-4.664c7.372-2.765,6.276-9.764,5.358-12.89C195.241,121.73,195.235,120.623,195.577,119.594z"/>
			</g>
		</g>
		<g>
			<g>
				<path class="st1" d="M189.045,119.909c-0.057-1.757-1.868-2.898-3.475-2.185l-5.776,2.567c-1.266,0.563-1.825,2.054-1.235,3.307
					c1.005,2.133,2.979,4.767,6.364,3.639C188.487,126.049,189.132,122.599,189.045,119.909z"/>
			</g>
		</g>
		<g>
			<g>
				<path class="st1" d="M168.328,120.292l-5.777-2.567c-1.606-0.714-3.417,0.428-3.475,2.185c-0.087,2.69,0.558,6.14,4.122,7.329
					c3.385,1.128,5.36-1.506,6.364-3.639C170.153,122.345,169.594,120.854,168.328,120.292z"/>
			</g>
		</g>
		<g>
			<g>
				<path class="st25" d="M99.62,48.894c0.101,6.225,5.171,11.242,11.419,11.242s11.318-5.017,11.419-11.242H99.62z"/>
			</g>
		</g>
		<g>
			<g>
				<path class="st25" d="M122.394,11.5H99.684c-3.317,0-5.904,2.874-5.556,6.173l1.349,12.778h31.124l1.349-12.778
					C128.298,14.374,125.711,11.5,122.394,11.5z"/>
			</g>
		</g>
		<g>
			<g>
				<path class="st13" d="M130.879,30.451h-39.68c-5.093,0-9.221,4.129-9.221,9.221s4.129,9.221,9.221,9.221h39.68
					c5.093,0,9.221-4.128,9.221-9.221S135.972,30.451,130.879,30.451z"/>
			</g>
		</g>
		<g>
			<g>
				<path class="st5" d="M167.983,22.697c-4.498-0.838-8.043-4.31-8.898-8.717c-0.043-0.221-0.352-0.221-0.395,0
					c-0.855,4.406-4.4,7.879-8.898,8.717c-0.226,0.042-0.226,0.345,0,0.387c4.498,0.838,8.042,4.31,8.898,8.717
					c0.043,0.221,0.352,0.221,0.395,0c0.855-4.406,4.4-7.879,8.898-8.717C168.208,23.042,168.208,22.739,167.983,22.697z"/>
			</g>
		</g>
		<g>
			<g>
				<path class="st1" d="M218.887,214.748c-3.004-0.56-5.372-2.879-5.943-5.822c-0.029-0.148-0.235-0.148-0.264,0
					c-0.571,2.943-2.939,5.263-5.943,5.822c-0.151,0.028-0.151,0.23,0,0.258c3.004,0.56,5.372,2.879,5.943,5.822
					c0.029,0.148,0.235,0.148,0.264,0c0.571-2.943,2.939-5.263,5.943-5.822C219.038,214.978,219.038,214.776,218.887,214.748z"/>
			</g>
		</g>
		<g>
			<g>
				<path class="st7" d="M57.694,143.302h-2.329v-2.33c0-1.744-1.413-3.157-3.157-3.157c-1.744,0-3.157,1.413-3.157,3.157v2.33
					h-2.33c-1.744,0-3.157,1.413-3.157,3.157c0,1.744,1.413,3.157,3.157,3.157h2.33v2.33c0,1.744,1.413,3.157,3.157,3.157
					c1.744,0,3.157-1.414,3.157-3.157v-2.33h2.329c1.744,0,3.157-1.413,3.157-3.157C60.851,144.715,59.438,143.302,57.694,143.302z"
					/>
			</g>
		</g>
		<g>
			<g>
				<circle class="st6" cx="141.999" cy="3.377" r="3.377"/>
			</g>
		</g>
		<g>
			<g>
				<circle class="st5" cx="38.999" cy="169.377" r="3.377"/>
			</g>
		</g>
		<g>
			<g>
				<path d="M132.829,126.901c-2.01-3.727-3.072-7.926-3.072-12.146V49.563c0-1.381-1.119-2.5-2.5-2.5s-2.5,1.119-2.5,2.5v65.193
					c0,5.046,1.27,10.066,3.672,14.519c0.452,0.838,1.313,1.313,2.202,1.313c0.401,0,0.808-0.096,1.185-0.3
					C133.031,129.633,133.484,128.116,132.829,126.901z"/>
			</g>
		</g>
		<g>
			<g>
				<path d="M188.801,209.688l-2.95-4.351c-0.774-1.144-2.332-1.438-3.473-0.666c-1.143,0.775-1.44,2.33-0.666,3.473l2.95,4.351
					c5.215,7.691,5.729,17.185,1.377,25.395c-4.353,8.209-12.498,13.11-21.79,13.11H57.829c-9.292,0-17.438-4.901-21.79-13.11
					c-4.353-8.21-3.838-17.703,1.377-25.395l54.633-80.571c3.448-5.085,5.271-11.021,5.271-17.168V49.542c0-1.381-1.119-2.5-2.5-2.5
					s-2.5,1.119-2.5,2.5v65.214c0,5.142-1.525,10.107-4.41,14.361l-54.633,80.571c-6.271,9.251-6.891,20.669-1.656,30.543
					C36.856,250.105,46.653,256,57.829,256h106.42c11.176,0,20.973-5.895,26.208-15.769
					C195.691,230.357,195.072,218.939,188.801,209.688z"/>
			</g>
		</g>
		<g>
			<g>
				<g>
					<path d="M130.879,27.951h-39.68c-6.463,0-11.722,5.258-11.722,11.721s5.259,11.722,11.722,11.722h39.68
						c6.463,0,11.722-5.259,11.722-11.722S137.342,27.951,130.879,27.951z M130.879,46.394h-39.68c-3.706,0-6.722-3.016-6.722-6.722
						s3.016-6.721,6.722-6.721h39.68c3.706,0,6.722,3.015,6.722,6.721S134.585,46.394,130.879,46.394z"/>
				</g>
			</g>
		</g>
		<g>
			<g>
				<path d="M122.653,47.383c-1.379-0.144-2.601,0.862-2.739,2.235c-0.462,4.57-4.277,8.017-8.875,8.017
					c-4.596,0-8.411-3.445-8.875-8.014c-0.14-1.373-1.368-2.375-2.739-2.235c-1.374,0.14-2.375,1.366-2.235,2.739
					c0.724,7.132,6.678,12.51,13.85,12.51c7.174,0,13.128-5.38,13.85-12.513C125.027,48.748,124.026,47.521,122.653,47.383z"/>
			</g>
		</g>
		<g>
			<g>
				<path d="M128.405,11.678C126.874,9.976,124.683,9,122.394,9H99.685c-2.289,0-4.48,0.976-6.012,2.678
					c-1.53,1.701-2.271,3.982-2.03,6.258L92.9,29.857c0.136,1.283,1.221,2.237,2.483,2.237c0.088,0,0.176-0.005,0.266-0.014
					c1.373-0.145,2.368-1.376,2.224-2.749L96.615,17.41c-0.094-0.881,0.182-1.729,0.774-2.388C97.983,14.363,98.798,14,99.685,14
					h22.709c0.887,0,1.701,0.363,2.295,1.022c0.593,0.658,0.868,1.507,0.774,2.388l-1.253,11.877
					c-0.145,1.373,0.851,2.604,2.224,2.749c1.386,0.152,2.604-0.851,2.749-2.224l1.253-11.877
					C130.676,15.66,129.936,13.379,128.405,11.678z"/>
			</g>
		</g>
		<g>
			<g>
				<path d="M132.165,181.918c-0.172-1.37-1.42-2.35-2.791-2.17c-4.612,0.577-7.278,2.834-9.631,4.824
					c-2.495,2.112-4.466,3.78-8.713,3.78s-6.218-1.669-8.712-3.782c-2.749-2.328-5.863-4.967-11.944-4.967
					c-6.079,0-9.193,2.639-11.941,4.968c-2.493,2.112-4.463,3.781-8.708,3.781c-4.254,0-6.231-1.667-8.735-3.777
					c-1.411-1.189-2.871-2.419-4.802-3.377c-1.237-0.613-2.737-0.107-3.351,1.13c-0.613,1.236-0.107,2.736,1.13,3.351
					c1.391,0.689,2.561,1.676,3.8,2.72c2.755,2.322,5.878,4.954,11.958,4.954c6.079,0,9.192-2.639,11.94-4.967
					c2.493-2.113,4.463-3.782,8.709-3.782c4.247,0,6.218,1.669,8.712,3.782c2.749,2.328,5.863,4.967,11.944,4.967
					c6.078,0,9.194-2.637,11.943-4.964c2.084-1.764,3.884-3.286,7.021-3.68C131.365,184.537,132.337,183.288,132.165,181.918z"/>
			</g>
		</g>
		<g>
			<g>
				<path d="M174.093,129.551c-1.381,0-2.5,1.119-2.5,2.5v1.203c0,1.381,1.119,2.5,2.5,2.5s2.5-1.119,2.5-2.5v-1.203
					C176.593,130.67,175.474,129.551,174.093,129.551z"/>
			</g>
		</g>
		<g>
			<g>
				<path d="M186.277,135.594c-1.381,0-2.5,1.119-2.5,2.5v6.565c0,3.281-2.67,5.95-5.951,5.95h-7.165
					c-3.281,0-5.951-2.669-5.951-5.95v-6.628c0-1.381-1.119-2.5-2.5-2.5s-2.5,1.119-2.5,2.5v6.628c0,6.038,4.913,10.95,10.951,10.95
					h7.165c6.038,0,10.951-4.912,10.951-10.95v-6.565C188.777,136.713,187.658,135.594,186.277,135.594z"/>
			</g>
		</g>
		<g>
			<g>
				<g>
					<path d="M189.212,115.77c-1.402-0.879-3.145-1.003-4.657-0.329l-5.776,2.567c-1.233,0.548-2.172,1.546-2.643,2.811
						c-0.47,1.262-0.412,2.627,0.161,3.846c1.632,3.463,4.177,5.343,7.067,5.343c0.763,0,1.549-0.131,2.349-0.397
						c3.922-1.307,5.992-4.78,5.831-9.781c0,0,0,0,0-0.001C191.489,118.167,190.617,116.65,189.212,115.77z M184.132,124.866
						c-0.57,0.188-1.91,0.641-3.322-2.29l5.736-2.592v0.007C186.676,124.018,184.762,124.656,184.132,124.866z"/>
				</g>
			</g>
		</g>
		<g>
			<g>
				<g>
					<path d="M171.986,120.818c-0.471-1.265-1.409-2.263-2.643-2.811l-5.776-2.567c-1.517-0.674-3.256-0.549-4.659,0.33
						c-1.405,0.882-2.276,2.398-2.33,4.058c-0.161,5.001,1.909,8.474,5.83,9.78c0.801,0.268,1.587,0.398,2.35,0.398
						c2.891,0,5.436-1.881,7.067-5.344C172.398,123.445,172.456,122.08,171.986,120.818z M163.989,124.865
						c-0.627-0.209-2.532-0.844-2.414-4.839l5.727,2.507C165.902,125.504,164.563,125.058,163.989,124.865z"/>
				</g>
			</g>
		</g>
		<g>
			<g>
				<g>
					<path d="M208.595,172.021c-0.618-2.241-2.077-4.101-4.11-5.236c-3.726-2.076-8.464-1.037-11.022,2.267l-31.668-18.283
						c0.73-1.761,0.854-3.702,0.338-5.572c-0.618-2.242-2.078-4.102-4.109-5.235c-4.012-2.238-9.204-0.861-11.577,3.073
						c-1.044,1.729-1.447,3.78-1.138,5.771c0.029,0.188-0.07,0.36-0.247,0.429c-1.88,0.728-3.453,2.103-4.43,3.872
						c-2.22,4.021-0.817,9.208,3.126,11.563c1.998,1.191,4.338,1.527,6.59,0.941c1.877-0.489,3.496-1.565,4.656-3.078l31.668,18.283
						c-1.583,3.868-0.111,8.493,3.55,10.679c1.355,0.81,2.868,1.224,4.403,1.224c0.728,0,1.461-0.093,2.185-0.281
						c2.251-0.586,4.132-2.018,5.295-4.032c1.002-1.735,1.369-3.779,1.031-5.757c-0.015-0.087,0.063-0.222,0.146-0.253
						c1.879-0.695,3.467-2.034,4.47-3.772C208.914,176.606,209.213,174.263,208.595,172.021z M203.421,176.121
						c-0.427,0.739-1.075,1.286-1.874,1.582c-2.359,0.873-3.765,3.306-3.341,5.784c0.144,0.841-0.006,1.676-0.433,2.415
						c-0.488,0.846-1.278,1.447-2.224,1.693c-0.944,0.245-1.927,0.104-2.767-0.396c-1.627-0.972-2.229-3.193-1.313-4.852
						c0.125-0.227,0.292-0.449,0.527-0.702c0.518-0.558,0.753-1.32,0.641-2.073c-0.113-0.752-0.563-1.412-1.223-1.793
						l-36.159-20.876c-0.385-0.223-0.816-0.335-1.25-0.335c-0.309,0-0.618,0.057-0.912,0.172c-0.708,0.277-1.251,0.862-1.476,1.588
						c-0.098,0.313-0.195,0.552-0.31,0.749c-0.488,0.846-1.277,1.446-2.223,1.692c-0.942,0.244-1.928,0.105-2.767-0.396
						c-1.628-0.972-2.229-3.194-1.313-4.854c0.416-0.754,1.059-1.315,1.857-1.625c2.384-0.923,3.775-3.331,3.384-5.859
						c-0.132-0.847,0.033-1.684,0.478-2.421c0.979-1.623,3.204-2.21,4.859-1.29c0.854,0.477,1.467,1.258,1.726,2.199
						c0.26,0.94,0.134,1.925-0.354,2.771c-0.114,0.197-0.271,0.401-0.493,0.642c-0.517,0.558-0.752,1.32-0.638,2.072
						c0.113,0.752,0.563,1.411,1.222,1.791l36.159,20.876c0.658,0.381,1.455,0.439,2.164,0.162c0.708-0.278,1.251-0.863,1.475-1.591
						c0.101-0.325,0.213-0.589,0.346-0.809c0.979-1.621,3.204-2.21,4.856-1.289c0.854,0.478,1.468,1.258,1.727,2.199
						C204.034,174.291,203.909,175.275,203.421,176.121z"/>
				</g>
			</g>
		</g>
		<g>
			<g>
				<path d="M207.856,153.105c-0.977-1.77-2.55-3.146-4.43-3.873c-0.175-0.067-0.276-0.242-0.248-0.427
					c0.312-1.993-0.094-4.044-1.138-5.772c-2.371-3.933-7.563-5.313-11.575-3.073c-2.032,1.134-3.492,2.992-4.11,5.234
					c-0.516,1.871-0.393,3.813,0.337,5.573l-13.185,7.612c-1.195,0.69-1.605,2.22-0.915,3.415c0.69,1.196,2.221,1.604,3.415,0.915
					l15.431-8.909c0.658-0.38,1.107-1.038,1.222-1.789s-0.119-1.514-0.635-2.071c-0.226-0.245-0.383-0.449-0.496-0.646
					c-0.488-0.846-0.613-1.829-0.354-2.771c0.259-0.941,0.872-1.723,1.727-2.199c1.656-0.921,3.879-0.331,4.858,1.291
					c0.562,0.931,0.57,1.83,0.479,2.42c-0.395,2.527,0.997,4.937,3.383,5.86c0.799,0.309,1.44,0.87,1.857,1.626
					c0.916,1.658,0.315,3.879-1.313,4.851c-0.842,0.5-1.824,0.641-2.768,0.396c-0.945-0.246-1.734-0.847-2.22-1.688
					c-0.116-0.203-0.216-0.442-0.312-0.753c-0.225-0.727-0.768-1.312-1.476-1.589c-0.709-0.279-1.504-0.219-2.163,0.162
					l-11.141,6.433c-1.195,0.69-1.605,2.22-0.915,3.415c0.463,0.802,1.304,1.25,2.167,1.25c0.425,0,0.854-0.107,1.248-0.335
					l8.894-5.136c1.161,1.514,2.781,2.591,4.659,3.079c2.25,0.586,4.59,0.251,6.588-0.942
					C208.674,162.313,210.077,157.126,207.856,153.105z"/>
			</g>
		</g>
		<g>
			<g>
				<path d="M175.91,169.789c-0.69-1.196-2.222-1.604-3.415-0.915l-15.424,8.905c-0.658,0.38-1.108,1.039-1.222,1.791
					c-0.114,0.752,0.121,1.515,0.638,2.073c0.237,0.256,0.404,0.479,0.528,0.704c0.916,1.658,0.315,3.88-1.312,4.852
					c-0.842,0.501-1.825,0.642-2.768,0.396c-0.945-0.246-1.734-0.848-2.223-1.693c-0.427-0.739-0.577-1.574-0.434-2.413
					c0.418-2.44-1.019-4.928-3.341-5.786c-0.798-0.295-1.446-0.843-1.873-1.582c-0.488-0.846-0.614-1.83-0.354-2.771
					c0.259-0.941,0.872-1.722,1.726-2.198c1.655-0.924,3.882-0.332,4.86,1.292c0.131,0.218,0.241,0.475,0.345,0.81
					c0.226,0.726,0.769,1.31,1.477,1.587c0.708,0.278,1.503,0.218,2.161-0.163l11.049-6.379c1.195-0.69,1.605-2.22,0.915-3.415
					c-0.691-1.196-2.222-1.605-3.415-0.915l-8.805,5.083c-2.558-3.304-7.3-4.342-11.023-2.266c-2.032,1.135-3.491,2.994-4.109,5.236
					c-0.618,2.241-0.318,4.586,0.845,6.6c1.003,1.737,2.59,3.077,4.469,3.771c0.084,0.031,0.162,0.166,0.147,0.253
					c-0.339,1.975,0.028,4.02,1.031,5.757c1.162,2.014,3.042,3.446,5.293,4.032c0.725,0.188,1.458,0.281,2.187,0.281
					c1.535,0,3.049-0.414,4.404-1.224c3.66-2.187,5.131-6.813,3.548-10.679l13.18-7.609
					C176.19,172.514,176.601,170.984,175.91,169.789z"/>
			</g>
		</g>
		<g>
			<g>
				<g>
					<path d="M198.39,107.881c-0.776-0.393-1.699-0.353-2.439,0.104c-0.739,0.456-1.189,1.264-1.188,2.133
						c0.006,2.632-0.519,5.555-1.558,8.688c-0.497,1.493-0.517,3.108-0.058,4.67c1.476,5.024,0.184,8.337-3.838,9.845
						c-4.956,1.858-7.738,3.726-8.716,5.857l-12.702-0.003c-0.979-2.13-3.761-3.997-8.715-5.854
						c-4.021-1.508-5.312-4.82-3.838-9.845c0.459-1.561,0.439-3.175-0.056-4.669c-1.041-3.137-1.565-6.061-1.559-8.688
						c0.002-0.869-0.447-1.677-1.188-2.134c-0.741-0.456-1.664-0.496-2.439-0.104c-18.191,9.189-29.491,27.54-29.491,47.892
						c0,29.575,24.062,53.637,53.637,53.637c29.576,0,53.638-24.062,53.638-53.637C227.881,135.421,216.581,117.07,198.39,107.881z
						 M174.243,204.409c-26.818,0-48.637-21.818-48.637-48.637c0-17.183,8.884-32.793,23.425-41.59
						c0.294,1.987,0.797,4.06,1.506,6.197c0.174,0.523,0.175,1.106,0.005,1.688c-2.21,7.533,0.361,13.49,6.879,15.935
						c5.164,1.937,5.916,3.24,5.918,3.24c0.692,1.756,2.494,2.936,4.483,2.936h12.843c1.988,0,3.79-1.18,4.472-2.911
						c0.007-0.013,0.743-1.32,5.929-3.265c6.52-2.444,9.092-8.401,6.879-15.935c-0.17-0.58-0.168-1.163,0.006-1.687
						c0.709-2.138,1.212-4.21,1.505-6.198c14.541,8.797,23.426,24.407,23.426,41.59
						C222.881,182.591,201.063,204.409,174.243,204.409z"/>
				</g>
			</g>
		</g>
		<g>
			<g>
				<g>
					<path d="M197.949,120.382L197.949,120.382c4.237-12.775,0.857-22.967-9.517-28.696c-8.751-4.833-19.626-4.833-28.379,0
						c-10.374,5.729-13.754,15.92-9.517,28.694c0.174,0.523,0.175,1.106,0.004,1.688c-2.209,7.533,0.363,13.49,6.88,15.935
						c5.164,1.937,5.916,3.24,5.918,3.24c0.692,1.756,2.494,2.936,4.483,2.936h12.843c1.988,0,3.79-1.18,4.472-2.911
						c0.007-0.013,0.743-1.32,5.929-3.265c6.52-2.444,9.091-8.401,6.879-15.937C197.774,121.486,197.776,120.904,197.949,120.382z
						 M193.147,123.475c1.475,5.025,0.184,8.338-3.838,9.846c-4.956,1.858-7.738,3.726-8.716,5.857l-12.702-0.003
						c-0.979-2.13-3.761-3.997-8.715-5.854c-4.021-1.508-5.312-4.82-3.838-9.845c0.459-1.561,0.439-3.175-0.056-4.669
						c-3.493-10.529-1.074-18.181,7.188-22.744c7.261-4.009,16.283-4.011,23.544,0c8.262,4.563,10.68,12.215,7.189,22.743
						C192.708,120.299,192.688,121.914,193.147,123.475z"/>
				</g>
			</g>
		</g>
		<g>
			<g>
				<g>
					<path d="M83.5,218.5c-4.963,0-9,4.037-9,9s4.037,9,9,9s9-4.037,9-9S88.463,218.5,83.5,218.5z M83.5,231.5c-2.206,0-4-1.794-4-4
						s1.794-4,4-4s4,1.794,4,4S85.706,231.5,83.5,231.5z"/>
				</g>
			</g>
		</g>
		<g>
			<g>
				<g>
					<path d="M111,200c-6.893,0-12.5,5.607-12.5,12.5S104.107,225,111,225s12.5-5.607,12.5-12.5S117.893,200,111,200z M111,220
						c-4.136,0-7.5-3.364-7.5-7.5s3.364-7.5,7.5-7.5s7.5,3.364,7.5,7.5S115.136,220,111,220z"/>
				</g>
			</g>
		</g>
	</g>
</g>
<g id="Layer_60">
</g>
<g id="Layer_61">
</g>
<g id="Layer_62">
</g>
<g id="Layer_63">
</g>
<g id="Layer_64">
</g>
<g id="Layer_65">
</g>
<g id="Layer_66">
</g>
<g id="Layer_67">
</g>
<g id="Layer_68">
</g>
<g id="Layer_69">
</g>
<g id="Layer_70">
</g>
<g id="Layer_71">
</g>
<g id="Layer_72">
</g>
<g id="Layer_73">
</g>
<g id="Layer_74">
</g>
<g id="Layer_75">
</g>
<g id="Layer_76">
</g>
<g id="Layer_77">
</g>
<g id="Layer_78">
</g>
<g id="Layer_79">
</g>
<g id="Layer_80">
</g>
<g id="Layer_81">
</g>
<g id="Layer_82">
</g>
<g id="Layer_83">
</g>
<g id="Layer_84">
</g>
<g id="Layer_85">
</g>
</svg>
