<?xml version="1.0" encoding="UTF-8"?>
<!DOCTYPE svg PUBLIC "-//W3C//DTD SVG 1.1//EN" "http://www.w3.org/Graphics/SVG/1.1/DTD/svg11.dtd">
<!-- Creator: CorelDRAW -->
<svg xmlns="http://www.w3.org/2000/svg" xml:space="preserve" width="6.82666in" height="6.82666in" style="shape-rendering:geometricPrecision; text-rendering:geometricPrecision; image-rendering:optimizeQuality; fill-rule:evenodd; clip-rule:evenodd"
viewBox="0 0 6.82666 6.82666"
 xmlns:xlink="http://www.w3.org/1999/xlink">
 <defs>
  <style type="text/css">
   <![CDATA[
    .fil2 {fill:none}
    .fil1 {fill:#424242}
    .fil0 {fill:#64B5F6}
   ]]>
  </style>
 </defs>
 <g id="Layer_x0020_1">
  <metadata id="CorelCorpID_0Corel-Layer"/>
  <path class="fil0" d="M0.853331 1.47397l0.363933 0 0 3.81684 1.9805 0c0.0237638,0.0217441 0.0450197,0.0462598 0.061748,0.0738268l0.0254409 0.0419134 0.120126 0.194843 0.0522835 -0.0862323 0.0176969 -0.029185 0.0467362 -0.0770827 3.93701e-006 0 0.0267756 -0.0441614c0.0167402,-0.0276063 0.0380079,-0.0521535 0.0617953,-0.0739213l1.99903 0 0 -3.81684 0.363933 0 0 4.2663 -5.12 0 0 -4.2663z"/>
  <path class="fil1" d="M5.50273 1.08639l-1.6074 0c-0.120283,0.0310984 -0.336783,0.108157 -0.437969,0.275083l0 3.94796c0.0298307,-0.0491969 0.0696772,-0.0905787 0.114126,-0.125283l1.93124 0 0 -4.09776zm-3.58362 0.671252c-0.000220472,-2.75591e-005 -0.0774252,-0.0113386 -0.0774252,0.0491299l0 0.330417 0 0.0317402 -0.028126 0.0151339 -0.0418937 0.0225472 0.0418937 0.0225472 0.028126 0.0151378 0 0.0317362 0 0.330417c0,0.0604685 0.0772047,0.0491575 0.0774252,0.0491299l0.0145827 0.105417c-0.000566929,7.87402e-005 -0.198677,0.0293976 -0.198677,-0.154547l0 -0.298681 -0.100866 -0.0542835 -0.0870945 -0.046874 0.0870945 -0.046874 0.100866 -0.0542835 0 -0.298681c0,-0.183953 0.19811,-0.154626 0.198677,-0.154547l-0.0145827 0.105417zm0.85998 -0.105417c0.000566929,-7.87402e-005 0.198673,-0.0294016 0.198673,0.154547l0 0.298681 0.10087 0.0542835 0.0871024 0.046874 -0.0871024 0.046874 -0.10087 0.0542835 0 0.298681c0,0.183941 -0.198106,0.154626 -0.198673,0.154547l0.0145827 -0.105417c0.000220472,2.75591e-005 0.0774213,0.0113386 0.0774213,-0.0491299l0 -0.330417 0 -0.0317362 0.028126 -0.0151378 0.0418976 -0.0225472 -0.0418976 -0.0225472 -0.028126 -0.0151339 0 -0.0317402 0 -0.330417c0,-0.0604685 -0.0772008,-0.0491575 -0.0774213,-0.0491299l-0.0145827 -0.105417zm-0.0878504 0.318075l-0.400799 0 0 0.525961 -0.102083 0.0214567 -0.126969 -0.28826 -0.0398465 0 0 -0.106669 0.0745512 0 0.0347087 0 0.0140394 0.031878 0.0389291 0.0883819 0 -0.326083 0 -0.0533346 0.0533346 0 0.454134 0 0 0.106669zm-0.318138 0.113244l0.143398 0 0.0501614 0.0878622 0.0581693 -0.0878622 0.133366 0 -0.107524 0.150185 0.115224 0.165083 -0.141067 0 -0.0581693 -0.101543 -0.0686063 0.101543 -0.130929 0 0.114614 -0.165083 -0.108638 -0.150185zm-0.640815 1.0301l1.13631 0 0 0.106669 -1.13631 0 0 -0.106669zm0 0.607791l1.13631 0 0 0.106669 -1.13631 0 0 -0.106669zm0 0.607795l1.13631 0 0 0.106669 -1.13631 0 0 -0.106669zm3.30811 -0.608606l-0.707701 0 0 0.917453 -0.102083 0.0214567 -0.222268 -0.50461 -0.0902244 0 0 -0.106669 0.124929 0 0.0347047 0 0.0140433 0.031878 0.134228 0.304732 0 -0.717575 0 -0.0533346 0.0533346 0 0.761035 0 0 0.106669zm-0.557244 0.283846l0.187516 0 0.0655984 0.114894 0.0760669 -0.114894 0.174398 0 -0.140602 0.196394 0.150677 0.215878 -0.184472 0 -0.0760669 -0.132787 -0.0897165 0.132787 -0.171217 0 0.149882 -0.215878 -0.142063 -0.196394zm-0.628 -1.05957l1.13631 0 0 0.106669 -1.13631 0 0 -0.106669zm0 -0.607791l1.13631 0 0 0.106669 -1.13631 0 0 -0.106669zm0 -0.607791l1.13631 0 0 0.106669 -1.13631 0 0 -0.106669zm-0.504465 -0.368051c-0.101236,-0.166815 -0.31772,-0.243791 -0.437972,-0.274882l-1.58879 0 0 4.09776 1.9127 0c0.0444134,0.0346693 0.0842402,0.0760118 0.114063,0.125146l0 -3.94802z"/>
 </g>
 <rect class="fil2" width="6.82666" height="6.82666"/>
</svg>
